<?xml version="1.0" standalone="no"?>
<!DOCTYPE svg PUBLIC "-//W3C//DTD SVG 20010904//EN"
 "http://www.w3.org/TR/2001/REC-SVG-20010904/DTD/svg10.dtd">
<svg version="1.0" xmlns="http://www.w3.org/2000/svg"
 width="512.000000pt" height="512.000000pt" viewBox="0 0 512.000000 512.000000"
 preserveAspectRatio="xMidYMid meet">
<metadata>
Created by potrace 1.14, written by Peter Selinger 2001-2017
</metadata>
<g transform="translate(0.000000,512.000000) scale(0.100000,-0.100000)"
fill="#000000" stroke="none">
<path d="M2379 5116 c-2 -2 -35 -6 -74 -9 -506 -44 -1060 -288 -1446 -637
-358 -324 -611 -718 -747 -1165 -42 -135 -58 -209 -89 -405 -18 -113 -24 -453
-11 -590 20 -207 85 -476 163 -676 120 -307 291 -578 520 -823 88 -93 168
-168 280 -260 278 -227 696 -422 1060 -496 224 -45 567 -65 755 -44 104 12
169 20 194 25 12 2 37 7 56 10 354 63 746 237 1051 466 418 314 721 731 892
1228 47 137 86 291 103 410 2 19 6 44 9 55 19 95 27 458 13 605 -21 205 -71
430 -136 605 -52 141 -72 187 -132 305 -212 414 -529 760 -930 1014 -246 155
-608 296 -875 341 -16 3 -39 7 -51 9 -12 2 -45 7 -74 11 -29 4 -62 9 -74 12
-24 5 -452 14 -457 9z m441 -200 c14 -2 47 -7 73 -11 26 -3 71 -10 100 -16 29
-6 63 -13 77 -15 73 -14 259 -69 315 -93 11 -5 61 -26 110 -46 422 -175 825
-521 1073 -920 200 -324 308 -643 351 -1040 9 -80 7 -428 -3 -475 -3 -14 -10
-59 -15 -100 -6 -41 -13 -84 -15 -95 -141 -679 -543 -1242 -1136 -1592 -174
-102 -439 -212 -605 -249 -94 -21 -289 -56 -355 -62 -84 -9 -436 -8 -475 1
-11 2 -47 8 -80 12 -62 7 -65 8 -155 26 -770 151 -1458 738 -1732 1474 -39
105 -87 261 -94 305 -3 19 -8 38 -10 41 -1 3 -8 34 -14 70 -5 35 -12 75 -15
89 -12 69 -16 120 -19 295 -4 198 7 348 34 470 5 22 12 56 15 75 10 58 53 210
84 295 192 531 566 979 1051 1257 145 83 267 139 420 191 102 35 267 78 360
92 25 4 54 9 65 11 11 2 54 7 95 10 41 4 77 8 79 10 5 5 392 -4 421 -10z"/>
<path d="M2419 4716 c-2 -2 -35 -6 -74 -10 -379 -33 -765 -184 -1081 -422
-101 -76 -144 -115 -239 -210 -106 -108 -128 -134 -214 -253 -231 -321 -361
-665 -400 -1061 -9 -83 -7 -395 2 -425 3 -11 9 -46 12 -77 8 -77 40 -225 71
-328 154 -503 493 -937 954 -1218 75 -46 171 -94 176 -89 5 5 9 65 19 267 3
63 7 144 10 180 2 36 7 124 10 195 3 72 8 157 10 190 2 33 7 125 10 205 4 80
8 170 10 202 l3 56 -88 32 c-112 40 -193 94 -269 176 -113 123 -208 323 -235
494 -3 19 -9 49 -12 65 -3 17 -7 92 -10 168 -7 209 30 363 130 541 111 198
307 361 493 410 337 89 725 -211 849 -655 37 -133 41 -347 10 -514 -3 -16 -8
-43 -11 -59 -3 -16 -11 -39 -17 -50 -6 -12 -11 -22 -10 -24 12 -15 -59 -178
-112 -260 -105 -162 -194 -232 -385 -302 l-63 -23 6 -111 c10 -165 15 -248 21
-386 3 -69 7 -156 10 -195 2 -38 7 -128 10 -200 3 -71 8 -157 10 -190 3 -33 7
-121 10 -195 8 -191 -1 -172 91 -192 43 -10 106 -20 139 -24 33 -3 81 -10 107
-14 53 -8 384 -6 414 3 10 3 44 9 74 12 30 4 87 13 125 22 39 8 79 16 90 19
47 9 159 44 166 51 4 5 10 69 14 143 3 74 8 169 10 210 2 41 7 125 10 185 14
284 17 334 20 395 2 36 7 128 10 205 4 77 9 142 11 144 3 3 -24 15 -60 27
-102 34 -194 91 -273 169 -81 80 -108 130 -118 220 -11 93 -5 406 11 575 2 25
6 83 9 130 3 47 8 101 10 120 2 19 7 60 10 90 3 30 8 71 10 90 3 19 7 64 10
100 3 36 10 99 15 140 5 41 12 102 15 135 4 33 8 71 10 85 1 14 6 50 9 80 4
30 9 56 11 58 3 4 48 5 101 3 l31 -1 1 -712 c0 -392 1 -719 1 -725 1 -9 21
-13 66 -13 l65 0 0 725 0 725 33 1 c17 0 47 1 65 2 19 1 37 -2 40 -8 4 -5 7
-332 8 -725 l0 -715 67 -3 67 -3 0 726 c0 683 1 725 18 726 52 2 124 0 128 -4
3 -2 5 -329 5 -726 l0 -722 67 3 67 3 -1 722 0 721 44 4 c24 2 48 1 52 -2 5
-3 12 -28 15 -55 3 -28 7 -63 9 -80 3 -16 7 -59 11 -95 4 -36 8 -76 10 -90 2
-14 7 -52 10 -85 4 -33 8 -75 10 -93 2 -18 7 -65 10 -105 4 -40 8 -83 11 -97
2 -14 6 -56 10 -95 3 -38 7 -88 9 -110 4 -35 11 -138 20 -290 8 -119 5 -394
-4 -442 -15 -77 -34 -108 -120 -192 -79 -79 -163 -132 -261 -164 -57 -18 -72
-32 -65 -57 2 -8 7 -69 9 -135 6 -132 15 -302 21 -410 3 -38 7 -133 11 -210 4
-77 8 -153 9 -170 2 -16 3 -56 4 -87 1 -32 5 -58 9 -58 16 0 209 135 287 200
142 120 296 284 375 400 13 19 27 37 31 40 14 11 124 201 164 285 73 154 150
382 170 505 3 19 8 42 10 50 3 8 7 38 11 65 3 28 8 64 10 80 16 112 9 443 -11
560 -40 235 -95 411 -195 620 -141 293 -386 590 -640 775 -41 30 -77 57 -80
61 -13 15 -224 136 -300 172 -141 65 -369 142 -480 161 -19 3 -46 8 -60 11
-14 3 -45 8 -70 11 -25 3 -53 8 -63 11 -20 5 -383 14 -388 9z"/>
<path d="M1352 3183 c-80 -114 -132 -305 -127 -472 2 -99 40 -226 103 -345 41
-79 137 -183 217 -234 71 -47 121 -34 74 19 -45 51 -110 149 -134 200 -24 53
-91 234 -101 274 -26 100 -25 330 2 445 9 41 17 88 18 105 1 40 -26 44 -52 8z"/>
</g>
</svg>
